PathFileType	4	(X/Y/Z)	Walk7.trc
DataRate	CameraRate	NumFrames	NumMarkers	Units	OrigDataRate	OrigDataStartFrame	OrigNumFrames
200.000000	200.000000	9	59	mm	200.000000	466	495
Frame#	Times		LFHD		RFHD		C7		CLAV		RBack		RASI		RACR1		RUA1		RElbowM		RFA1		RWRR		RWRU		LACR1		LUA1		LFA1		LWRR		LWRU		RTH1		RTH3		LTH2		LTH4		LASI		LTH3		RTB1		RTB3		RCAR		LTB2		LCAR		T10		RPSI		LLFC		LBHD		LToe		RBHD		STRN		RElbow		RTB4		RTH2		LTB1		RTB2		LTB4		LElbow		LPSI		LElbowM		LTH1		LMMAL		LMT1		RTH4		LTB3		LCAL		LMT5		RLFC		LLMAL		RMT1		RToe		RCAL		RMMAL		RLMAL		RMT5
			X1	Y1	Z1	X2	Y2	Z2	X3	Y3	Z3	X4	Y4	Z4	X5	Y5	Z5	X6	Y6	Z6	X7	Y7	Z7	X8	Y8	Z8	X9	Y9	Z9	X10	Y10	Z10	X11	Y11	Z11	X12	Y12	Z12	X13	Y13	Z13	X14	Y14	Z14	X15	Y15	Z15	X16	Y16	Z16	X17	Y17	Z17	X18	Y18	Z18	X19	Y19	Z19	X20	Y20	Z20	X21	Y21	Z21	X22	Y22	Z22	X23	Y23	Z23	X24	Y24	Z24	X25	Y25	Z25	X26	Y26	Z26	X27	Y27	Z27	X28	Y28	Z28	X29	Y29	Z29	X30	Y30	Z30	X31	Y31	Z31	X32	Y32	Z32	X33	Y33	Z33	X34	Y34	Z34	X35	Y35	Z35	X36	Y36	Z36	X37	Y37	Z37	X38	Y38	Z38	X39	Y39	Z39	X40	Y40	Z40	X41	Y41	Z41	X42	Y42	Z42	X43	Y43	Z43	X44	Y44	Z44	X45	Y45	Z45	X46	Y46	Z46	X47	Y47	Z47	X48	Y48	Z48	X49	Y49	Z49	X50	Y50	Z50	X51	Y51	Z51	X52	Y52	Z52	X53	Y53	Z53	X54	Y54	Z54	X55	Y55	Z55	X56	Y56	Z56	X57	Y57	Z57	X58	Y58	Z58	X59	Y59	Z59

466	2.33	713.7	1437.1	-50.13	705.33	1425.8	45.578	535.67	1276	-18.985	675.88	1193.2	-17.299	485.77	1156.1	99.259	668.07	845.43	156.17	599.58	1225	161.01	598.28	1086.8	245.99	534.91	929.06	206.95	641.19	841.76	289.16	656.9	741.19	256.13	620.34	743.92	319.01	599.15	1217.2	-206.15	625.78	1055.2	-277.12	677.47	854.81	-329.19	731.19	753.32	-310.41	688.66	746.04	-356.61	635.72	649.47	201.37	688.88	487.99	166.55	650.14	580.98	-176.34	596.01	569.05	-198.17	648.1	826.25	-176.9	599.04	486.56	-167.42	670.58	295.39	98.58	557.9	167.96	73.634	666.45	686.95	310.21	598.28	210.56	-110.93	737.06	706.08	-358.66	449.56	1076.1	-5.7467	411.74	850.51	53.372	625.9	395.52	-128.45	581.88	1366.9	-79.603	717.76	30.268	-36.508	572.24	1359.9	53.445	728.79	1089	-13.504	584.59	959.72	278.72	610.91	232.85	85.859	712.76	590.46	164.25	638.11	296.06	-59.727	578.42	253.65	133.07	616.51	211.18	-51.464	603.67	936.54	-296.84	401.35	855.79	-51.951	578.99	908.14	-230.69	593.02	653.24	-219.89	565.7	75.609	2.964	665.75	34.195	-12.95	661.11	567.58	185.97	603.43	129.14	-44.748	498.6	46.235	-32.054	622.63	20.611	-98.712	672.45	405.7	147.58	543.25	59.501	-75.338	558.02	54.979	42.817	596.78	36.287	85.539	422.6	151.51	46.133	502.63	142.61	20.818	476.76	143.38	100.11	521.76	61.161	123.41
467	2.335	719.21	1437.2	-50.308	710.81	1426	45.399	541.22	1276.1	-19.245	681.44	1193.3	-17.334	491.25	1156.3	98.95	672.79	845.94	156.63	605.06	1225.1	160.8	603.53	1087	245.89	540.03	929.35	206.88	646.14	842.05	289.29	661.83	741.45	256.42	625.18	744.25	319.24	604.99	1217.3	-206.28	631.93	1055.4	-277.21	685.14	855.51	-328.99	739.83	754.69	-309.86	697.55	746.88	-356.21	641.74	649.89	201.21	696.74	489.16	165.89	653.92	580.46	-176.43	599.71	568.81	-198.1	653.09	826.09	-177.18	602.22	486.35	-167.39	681.62	296.14	97.853	572.59	165.66	73.185	671.38	687.35	310.65	599.54	210.27	-110.86	746.49	707.62	-358.11	455.04	1076.3	-6.1466	416.83	851.01	52.953	628.47	395.06	-128.43	587.44	1367	-79.861	717.99	30.132	-36.521	577.74	1360	53.203	734.38	1089	-12.67	589.62	960.03	278.7	623.69	232.01	85.269	719.43	591.94	163.96	639.96	295.51	-59.65	590.81	251.83	132.66	617.76	210.78	-51.389	610.37	936.62	-297.11	406.61	856.18	-52.238	585.74	908.1	-230.9	597.31	653.06	-219.86	565.97	75.619	3.1278	665.83	34.141	-12.902	668.06	568.35	185.61	604.09	128.85	-44.652	498.69	46.462	-31.908	622.63	20.609	-98.687	681.18	406.65	146.77	543.43	59.62	-75.258	576.78	53.6	42.731	616.45	36.613	85.363	437.54	144.7	46.143	517.94	138.71	20.678	492.27	138.71	100.03	540.56	58.571	123.46
468	2.34	724.74	1437.3	-50.476	716.3	1426.1	45.229	546.76	1276.2	-19.505	686.99	1193.3	-17.366	496.73	1156.5	98.642	677.51	846.38	157.06	610.54	1225.3	160.59	608.85	1087.2	245.79	545.19	929.61	206.81	651.13	842.31	289.44	666.8	741.68	256.76	630.06	744.56	319.51	610.83	1217.5	-206.4	638.03	1055.6	-277.31	692.77	856.19	-328.81	748.44	756.06	-309.3	706.4	747.71	-355.8	647.71	650.25	201.07	704.48	490.28	165.2	657.73	579.93	-176.46	603.44	568.55	-198.02	658.14	825.87	-177.43	605.42	486.14	-167.36	692.54	296.85	97.167	587.43	163.32	72.754	676.34	687.73	311.14	600.79	209.98	-110.79	755.87	709.15	-357.55	460.51	1076.4	-6.539	421.94	851.43	52.569	631.02	394.59	-128.4	593	1367.1	-80.107	718.22	30.005	-36.538	583.24	1360.1	52.969	739.95	1088.9	-11.849	594.68	960.31	278.7	636.49	231.14	84.705	726.01	593.34	163.69	641.8	294.95	-59.565	603.21	249.92	132.26	618.99	210.38	-51.311	617.02	936.66	-297.35	411.87	856.51	-52.488	592.49	908.04	-231.07	601.63	652.87	-219.8	566.24	75.63	3.3072	665.92	34.087	-12.852	674.92	569.07	185.23	604.75	128.56	-44.555	498.79	46.696	-31.76	622.63	20.606	-98.654	689.65	407.53	145.97	543.62	59.74	-75.177	595.69	52.253	42.647	636.19	37.028	85.182	452.84	137.75	46.133	533.51	134.72	20.541	508.04	133.93	99.943	559.55	55.98	123.5
469	2.345	730.28	1437.4	-50.634	721.8	1426.1	45.068	552.31	1276.3	-19.762	692.55	1193.3	-17.395	502.2	1156.6	98.335	682.22	846.74	157.46	616.02	1225.4	160.39	614.21	1087.4	245.69	550.37	929.82	206.76	656.16	842.55	289.62	671.82	741.88	257.13	634.98	744.83	319.81	616.69	1217.5	-206.52	644.11	1055.7	-277.42	700.34	856.84	-328.62	757	757.42	-308.74	715.2	748.52	-355.37	653.62	650.53	200.96	712.07	491.33	164.47	661.55	579.4	-176.46	607.21	568.28	-197.93	663.26	825.61	-177.62	608.64	485.92	-167.32	703.34	297.54	96.522	602.41	160.96	72.344	681.34	688.07	311.67	602.03	209.69	-110.71	765.2	710.67	-356.97	466	1076.5	-6.9218	427.07	851.77	52.226	633.56	394.11	-128.36	598.58	1367.1	-80.34	718.44	29.889	-36.559	588.75	1360.1	52.745	745.49	1088.8	-11.053	599.78	960.55	278.71	649.31	230.24	84.168	732.5	594.65	163.44	643.62	294.39	-59.474	615.6	247.94	131.86	620.22	209.99	-51.231	623.64	936.67	-297.58	417.12	856.77	-52.696	599.24	907.94	-231.22	606	652.68	-219.73	566.5	75.64	3.5023	666.01	34.033	-12.8	681.67	569.72	184.84	605.39	128.27	-44.457	498.9	46.938	-31.612	622.64	20.604	-98.615	697.88	408.33	145.16	543.81	59.864	-75.092	614.76	50.966	42.583	656	37.553	85.018	468.51	130.69	46.102	549.34	130.68	20.408	524.06	129.07	99.848	578.69	53.419	123.54
470	2.35	735.82	1437.4	-50.781	727.31	1426.2	44.918	557.85	1276.3	-20.016	698.11	1193.3	-17.422	507.66	1156.7	98.03	686.93	847.03	157.84	621.5	1225.5	160.2	619.62	1087.4	245.59	555.59	929.98	206.74	661.22	842.75	289.82	676.89	742.04	257.54	639.95	745.07	320.15	622.56	1217.5	-206.63	650.15	1055.8	-277.54	707.87	857.46	-328.44	765.52	758.76	-308.17	723.96	749.32	-354.92	659.48	650.75	200.87	719.5	492.31	163.7	665.39	578.87	-176.42	611.02	568	-197.82	668.43	825.29	-177.75	611.87	485.7	-167.26	714.01	298.21	95.915	617.54	158.6	71.963	686.38	688.38	312.23	603.27	209.4	-110.63	774.46	712.18	-356.37	471.48	1076.6	-7.293	432.24	852.04	51.933	636.1	393.62	-128.31	604.16	1367.1	-80.561	718.65	29.783	-36.582	594.26	1360.1	52.531	751.02	1088.6	-10.296	604.92	960.76	278.75	662.12	229.33	83.661	738.9	595.86	163.2	645.43	293.83	-59.379	627.98	245.9	131.47	621.45	209.59	-51.147	630.21	936.64	-297.78	422.38	856.97	-52.855	605.98	907.82	-231.35	610.4	652.47	-219.65	566.74	75.651	3.7126	666.11	33.978	-12.746	688.3	570.29	184.43	606.04	127.98	-44.356	499.02	47.191	-31.463	622.65	20.603	-98.57	705.84	409.04	144.35	544.01	59.989	-75.003	633.96	49.768	42.549	675.85	38.215	84.887	484.54	123.57	46.045	565.43	126.61	20.281	540.33	124.17	99.748	597.98	50.925	123.59
471	2.355	741.37	1437.4	-50.917	732.82	1426.2	44.778	563.41	1276.3	-20.264	703.67	1193.2	-17.446	513.11	1156.8	97.728	691.67	847.26	158.19	626.98	1225.5	160.02	625.07	1087.4	245.5	560.84	930.1	206.74	666.32	842.92	290.05	681.99	742.16	257.98	644.96	745.28	320.51	628.44	1217.5	-206.74	656.16	1055.9	-277.67	715.34	858.05	-328.26	773.99	760.09	-307.6	732.68	750.1	-354.46	665.28	650.9	200.83	726.76	493.2	162.9	669.25	578.33	-176.35	614.86	567.71	-197.69	673.66	824.93	-177.82	615.13	485.47	-167.2	724.52	298.86	95.344	632.78	156.28	71.612	691.46	688.66	312.82	604.5	209.11	-110.55	783.66	713.67	-355.76	476.98	1076.7	-7.6507	437.44	852.23	51.697	638.62	393.13	-128.26	609.76	1367	-80.769	718.85	29.688	-36.607	599.79	1360.1	52.328	756.52	1088.4	-9.5905	610.1	960.92	278.8	674.93	228.42	83.186	745.21	596.96	162.99	647.23	293.27	-59.278	640.35	243.83	131.09	622.66	209.2	-51.059	636.75	936.57	-297.97	427.64	857.12	-52.958	612.71	907.67	-231.46	614.83	652.26	-219.54	566.97	75.661	3.937	666.19	33.921	-12.69	694.81	570.78	184.01	606.67	127.7	-44.253	499.14	47.456	-31.313	622.67	20.604	-98.519	713.54	409.66	143.54	544.2	60.117	-74.908	653.28	48.691	42.556	695.71	39.036	84.808	500.95	116.43	45.962	581.77	122.56	20.16	556.84	119.26	99.642	617.4	48.53	123.65
472	2.36	746.94	1437.3	-51.041	738.34	1426.1	44.649	568.98	1276.2	-20.503	709.23	1193.1	-17.468	518.57	1156.8	97.432	696.43	847.42	158.51	632.47	1225.4	159.86	630.56	1087.4	245.41	566.11	930.18	206.77	671.45	843.05	290.29	687.14	742.24	258.44	650.01	745.45	320.89	634.32	1217.5	-206.84	662.14	1055.9	-277.8	722.76	858.61	-328.09	782.41	761.41	-307.02	741.35	750.87	-353.98	671.03	650.97	200.82	733.82	494	162.05	673.12	577.79	-176.25	618.72	567.41	-197.56	678.93	824.51	-177.82	618.4	485.23	-167.12	734.88	299.51	94.807	648.14	154.03	71.295	696.56	688.89	313.44	605.73	208.82	-110.47	792.79	715.14	-355.12	482.48	1076.7	-7.9933	442.68	852.35	51.524	641.14	392.63	-128.2	615.36	1367	-80.963	719.04	29.603	-36.632	605.32	1360	52.138	762	1088.2	-8.9468	615.32	961.05	278.88	687.72	227.53	82.743	751.42	597.93	162.79	649.03	292.7	-59.172	652.69	241.73	130.71	623.87	208.8	-50.965	643.24	936.46	-298.15	432.9	857.22	-53	619.43	907.48	-231.55	619.28	652.04	-219.42	567.19	75.672	4.1737	666.28	33.86	-12.629	701.2	571.19	183.58	607.31	127.43	-44.146	499.27	47.735	-31.158	622.7	20.61	-98.463	720.96	410.15	142.74	544.39	60.25	-74.807	672.7	47.766	42.612	715.57	40.041	84.79	517.72	109.32	45.854	598.36	118.55	20.044	573.59	114.38	99.53	636.93	46.271	123.73
473	2.365	752.51	1437.2	-51.153	743.87	1426	44.532	574.55	1276.2	-20.731	714.79	1192.9	-17.486	524.02	1156.8	97.144	701.22	847.51	158.8	637.95	1225.4	159.71	636.07	1087.3	245.32	571.4	930.2	206.84	676.62	843.14	290.57	692.33	742.28	258.93	655.09	745.59	321.3	640.21	1217.4	-206.93	668.1	1055.9	-277.94	730.13	859.14	-327.91	790.77	762.71	-306.43	749.98	751.61	-353.48	676.73	650.97	200.84	740.69	494.69	161.18	677.01	577.24	-176.12	622.61	567.09	-197.41	684.26	824.05	-177.75	621.68	484.99	-167.03	745.07	300.17	94.303	663.6	151.87	71.013	701.7	689.07	314.07	606.97	208.54	-110.38	801.85	716.59	-354.46	487.99	1076.7	-8.3192	447.95	852.4	51.422	643.67	392.12	-128.13	620.97	1366.8	-81.144	719.21	29.529	-36.657	610.85	1359.9	51.961	767.47	1088	-8.3749	620.58	961.13	278.98	700.48	226.68	82.333	757.53	598.77	162.6	650.83	292.13	-59.061	665.01	239.63	130.34	625.07	208.41	-50.864	649.7	936.32	-298.32	438.16	857.27	-52.975	626.13	907.26	-231.63	623.74	651.81	-219.28	567.41	75.685	4.4191	666.37	33.793	-12.564	707.46	571.5	183.15	607.93	127.15	-44.036	499.4	48.031	-30.996	622.74	20.622	-98.401	728.1	410.53	141.95	544.58	60.388	-74.7	692.22	47.027	42.72	735.4	41.253	84.842	534.86	102.27	45.72	615.19	114.62	19.935	590.56	109.58	99.411	656.56	44.182	123.83
474	2.37	758.08	1437.1	-51.252	749.4	1425.9	44.428	580.15	1276.1	-20.943	720.36	1192.8	-17.501	529.48	1156.8	96.868	706.06	847.54	159.07	643.44	1225.3	159.59	641.62	1087.2	245.25	576.7	930.18	206.95	681.82	843.19	290.86	697.56	742.28	259.43	660.22	745.68	321.73	646.11	1217.3	-207.01	674.03	1055.8	-278.09	737.44	859.63	-327.74	799.06	763.98	-305.83	758.55	752.33	-352.96	682.38	650.9	200.91	747.33	495.27	160.29	680.91	576.68	-175.98	626.53	566.77	-197.25	689.63	823.54	-177.61	624.99	484.73	-166.93	755.08	300.83	93.832	679.13	149.83	70.767	706.87	689.22	314.73	608.21	208.25	-110.29	810.84	718.03	-353.78	493.51	1076.6	-8.6269	453.27	852.4	51.395	646.21	391.61	-128.05	626.59	1366.7	-81.31	719.38	29.463	-36.683	616.4	1359.8	51.801	772.91	1087.7	-7.8829	625.87	961.18	279.1	713.19	225.88	81.955	763.53	599.46	162.45	652.64	291.55	-58.944	677.29	237.55	129.97	626.27	208.02	-50.757	656.12	936.15	-298.47	443.43	857.3	-52.88	632.81	907.01	-231.71	628.21	651.57	-219.12	567.63	75.703	4.6692	666.46	33.72	-12.492	713.57	571.73	182.72	608.56	126.89	-43.922	499.54	48.345	-30.821	622.78	20.639	-98.334	734.96	410.79	141.16	544.77	60.534	-74.585	711.81	46.505	42.879	755.19	42.694	84.968	552.33	95.331	45.563	632.23	110.82	19.831	607.73	104.9	99.284	676.26	42.297	123.96
